<svg width="24" height="24" viewBox="0 0 24 24" fill="none" xmlns="http://www.w3.org/2000/svg">
<path d="M19.5498 0.186035H4.48825C2.16035 0.186035 0.266602 2.07978 0.266602 4.40768V19.4692C0.266602 21.7971 2.16035 23.6909 4.48825 23.6909H19.5498C21.8777 23.6909 23.7715 21.7971 23.7715 19.4692V4.40768C23.7715 2.07978 21.8777 0.186035 19.5498 0.186035ZM20.1305 18.5291H12.5974C11.9353 20.4889 9.15406 20.4918 8.49101 18.5291H3.90756C2.99298 18.5291 2.99275 17.1464 3.90756 17.1464H8.49101C9.15305 15.1866 11.9344 15.1836 12.5974 17.1464H20.1305C21.0451 17.1464 21.0454 18.5291 20.1305 18.5291ZM20.1305 12.6298H18.4967C17.8346 14.5896 15.0533 14.5926 14.3902 12.6298H3.90756C2.99298 12.6298 2.99275 11.2471 3.90756 11.2471H14.3903C15.0523 9.28733 17.8336 9.28434 18.4967 11.2471H20.1306C21.0451 11.2471 21.0454 12.6298 20.1305 12.6298ZM20.1305 6.73053H9.6478C8.98571 8.69034 6.20443 8.69333 5.54138 6.73053H3.90756C2.99298 6.73053 2.99275 5.34788 3.90756 5.34788H5.54138C6.20342 3.38807 8.98475 3.38508 9.6478 5.34788H20.1305C21.0451 5.34788 21.0454 6.73053 20.1305 6.73053Z" fill="white"/>
<path d="M10.5449 17.0542C9.50821 17.0542 9.50876 18.6212 10.5449 18.6212C11.5815 18.6212 11.5809 17.0542 10.5449 17.0542Z" fill="white"/>
<path d="M7.59368 5.25635C6.55704 5.25635 6.55759 6.82332 7.59368 6.82332C8.63029 6.82337 8.62974 5.25635 7.59368 5.25635Z" fill="white"/>
<path d="M16.4433 11.1553C15.4066 11.1553 15.4072 12.7222 16.4433 12.7222C17.4799 12.7223 17.4794 11.1553 16.4433 11.1553Z" fill="white"/>
</svg>
