<svg width="14" height="23" viewBox="0 0 14 23" fill="none" xmlns="http://www.w3.org/2000/svg">
<path d="M13.4321 12.9657L1.38606 0.923944C0.944818 0.573592 0.28125 0.907982 0.28125 1.43196V17.8884C0.28125 18.2567 0.580133 18.5556 0.948402 18.5556C1.12187 18.5556 1.28817 18.4888 1.38345 18.3927L4.72084 15.4848L7.44287 21.8441C7.48913 21.9526 7.57627 22.0381 7.68572 22.0826C7.73915 22.1029 7.79518 22.1137 7.85121 22.1137C7.91082 22.1137 7.97043 22.1011 8.02646 22.0772L10.8907 20.8496C11.1166 20.7536 11.2217 20.492 11.1247 20.2661L8.48985 14.1078H12.9571C13.3254 14.1078 13.6243 13.809 13.6243 13.4407C13.6243 13.333 13.5968 13.1711 13.4321 12.9657Z" fill="#C10297"/>
</svg>
